<svg width="49" height="50" viewBox="0 0 49 50" fill="none" xmlns="http://www.w3.org/2000/svg">
<path d="M17.372 1.15326H4.93576L4.30118 6.8957C4.17418 8.05914 4.04185 9.01075 3.90476 9.75111C3.76676 10.4916 3.59206 11.0729 3.38087 11.4958C3.16901 11.9191 2.90492 12.2096 2.58757 12.3684C2.27023 12.5268 1.86803 12.6062 1.38176 12.6062H0.556732V17.8408H4.13951L4.26957 16.6633H17.5649V17.8408H19.546H18.3843V12.6062H17.372V1.15326ZM8.48964 12.6062C8.84913 11.8448 9.1505 11.0569 9.39386 10.2428C9.63711 9.42885 9.8117 8.52458 9.91752 7.53026L10.0445 6.388H11.7846V12.6062H8.48964Z" fill="#00ADEF"/>
<path d="M34.054 1.15326H30.3204L23.7838 9.17965V1.15326H18.384V12.6062H19.5458V17.8408H19.5466C20.0038 17.5451 20.5023 17.2848 21.0418 17.06C21.6903 16.7899 22.3931 16.5965 23.1506 16.4797L28.5117 10.0995V16.8989C28.6528 16.9491 28.7915 17.0029 28.9274 17.06C29.4601 17.2839 29.9528 17.5442 30.4059 17.8408H31.6732V16.6633H34.054V16.6629C32.8629 15.852 31.9589 14.838 31.3405 13.6215L34.054 12.8002V6.19408L31.3405 5.37284C31.9589 4.15627 32.8629 3.1427 34.054 2.33154V1.15326Z" fill="#F36E29"/>
<path d="M19.5458 12.6051H18.384V17.8396H19.5458V12.6051Z" fill="#254E46"/>
<path d="M39.4957 0.836437C37.465 0.836437 35.7672 1.25986 34.4028 2.10556C34.2841 2.17919 34.1681 2.25463 34.0545 2.332V6.19454L37.2112 7.14978C37.7823 6.32503 38.555 5.91271 39.5275 5.91271C40.3527 5.91271 41.0509 6.22489 41.6218 6.84847C42.193 7.47249 42.4788 8.35535 42.4788 9.4975C42.4788 10.6396 42.193 11.523 41.6218 12.1465C41.0509 12.7706 40.3527 13.0825 39.5275 13.0825C38.555 13.0825 37.7823 12.6702 37.2112 11.8452L34.0545 12.8007V16.6633C34.0548 16.6635 34.055 16.6636 34.0551 16.6638H37.6712V18.0319C38.246 18.1163 38.8543 18.1584 39.4957 18.1584C39.9606 18.1584 40.4086 18.135 40.8402 18.0882L41.8222 16.6638H44.9262C45.4364 16.3337 45.8953 15.9596 46.3022 15.5412C47.075 14.748 47.6615 13.8281 48.0632 12.781C48.4657 11.7342 48.6665 10.6396 48.6665 9.4975C48.6665 8.35535 48.4657 7.2609 48.0632 6.21402C47.6615 5.16702 47.075 4.2469 46.3022 3.45386C45.5304 2.6606 44.5727 2.02616 43.4307 1.5504C42.2878 1.07454 40.9768 0.836437 39.4957 0.836437Z" fill="#FFCA0A"/>
<path d="M34.0541 2.33101C32.863 3.14227 31.959 4.15574 31.3406 5.37242L34.0541 6.19354V2.33101ZM34.0541 12.7997L31.3406 13.6209C31.959 14.8375 32.863 15.8514 34.0541 16.6624V12.7997Z" fill="#F03E22"/>
<path d="M17.5649 17.838H15.312H5.79262H4.13951L3.63489 22.4029C3.50765 23.5876 3.36989 24.5498 3.22215 25.2897C3.07384 26.0306 2.88905 26.6069 2.66665 27.019C2.44471 27.4312 2.16939 27.7119 1.84174 27.8596C1.51363 28.0079 1.08515 28.0927 0.556732 28.1133V33.4431C2.03729 33.422 3.28027 33.2529 4.28532 32.9356C4.45878 32.8807 4.62748 32.8189 4.79108 32.7498C4.88217 32.7066 4.97439 32.6646 5.06797 32.6238C5.73212 32.2987 6.30676 31.8473 6.79178 31.2704C7.45808 30.477 7.98196 29.4143 8.36252 28.0817C8.74343 26.7492 9.05001 25.0677 9.28283 23.0374L9.40984 21.895H11.5358V32.0587C12.5585 32.2645 13.4677 32.6139 14.2636 33.1071C14.3899 33.1856 14.5131 33.2658 14.6335 33.3483H15.3837V32.1554H17.5649V26.8444H15.9968C15.9545 26.5906 15.9172 26.3003 15.8856 25.9719C15.8536 25.6441 15.8382 25.3216 15.8382 25.0045C15.8382 23.8623 16.0336 22.7678 16.4248 21.7209C16.7068 20.9681 17.0866 20.2808 17.5649 19.6591V17.838Z" fill="#F36E29"/>
<path d="M17.564 16.6633H4.26856L4.13861 17.8408H5.79172H15.3111H17.564V16.6633Z" fill="#254E46"/>
<path d="M48.1992 16.6638H44.9257C44.4683 16.9595 43.9699 17.2198 43.4303 17.4449C42.6459 17.7713 41.7828 17.9858 40.8398 18.0882L37.797 22.5014H37.6706V18.0319C36.4253 17.8492 35.3358 17.4685 34.4024 16.8896C34.284 16.8162 34.1678 16.7408 34.0547 16.6638H34.054V17.8413H31.6733V18.8679C31.7102 18.9049 31.7467 18.9422 31.783 18.9798C32.5553 19.7837 33.1374 20.7245 33.5281 21.8035C33.9203 22.8821 34.1155 24.0241 34.1155 25.2298C34.1155 26.3509 33.9148 27.4187 33.5123 28.434C33.1108 29.4491 32.524 30.3487 31.7513 31.1306C31.7256 31.1568 31.6993 31.1828 31.6733 31.2088V32.1587H31.7839V33.3516H33.8826C34.3753 32.9756 34.9403 32.6785 35.5776 32.4601C36.2266 32.2377 36.924 32.1092 37.6706 32.0737V27.9898H37.797L40.3906 32.0636H47.2912V33.3516H48.1917L42.1761 24.7223L48.1992 16.6638Z" fill="#00ADEF"/>
<path d="M34.0549 16.6621H31.6741V17.8396H34.0549V16.6621Z" fill="#254E46"/>
<path d="M44.9256 16.6618H41.8217L40.8396 18.0862C41.7827 17.9838 42.6458 17.7692 43.4302 17.4429C43.9697 17.2178 44.4682 16.9575 44.9256 16.6618ZM37.6705 16.6618H34.0545C34.1677 16.7388 34.2837 16.8142 34.4021 16.8876C35.3356 17.4665 36.4251 17.8472 37.6705 18.0299V16.6618Z" fill="#008F4D"/>
<path d="M9.17056 31.841C7.68955 31.841 6.37803 32.079 5.23577 32.5551C5.17924 32.5785 5.12338 32.6023 5.06798 32.6267C4.97723 32.671 4.88512 32.713 4.79108 32.7526C3.84291 33.2018 3.03374 33.7705 2.36405 34.4581C1.59159 35.2515 1.00471 36.1718 0.602964 37.2184C0.200988 38.2652 0 39.3597 0 40.5025C0 41.6442 0.200988 42.7391 0.602964 43.786C1.00471 44.8329 1.59159 45.7528 2.36405 46.5456C3.13582 47.339 4.0934 47.9733 5.23577 48.4494C6.37803 48.925 7.68955 49.1636 9.17056 49.1636C11.2012 49.1636 12.8991 48.7399 14.2636 47.8938C14.6673 47.6438 15.0406 47.3723 15.3837 47.0798V44.0389L11.4551 42.8496C10.8838 43.6745 10.1117 44.0871 9.13861 44.0871C8.31359 44.0871 7.61557 43.7749 7.04466 43.1515C6.47331 42.5272 6.18769 41.6442 6.18769 40.5025C6.18769 39.3597 6.47331 38.4771 7.04466 37.8533C7.61557 37.2295 8.31359 36.9168 9.13861 36.9168C10.1117 36.9168 10.8838 37.3294 11.4551 38.1543L15.3837 36.9653V33.9247C15.1479 33.7234 14.8978 33.5323 14.6335 33.3512H11.5359V32.0615C10.8052 31.9144 10.017 31.841 9.17056 31.841Z" fill="#FFCA0A"/>
<path d="M11.5356 32.0619V33.3516H14.6333C14.5127 33.269 14.3896 33.1888 14.2633 33.1104C13.4674 32.6171 12.5581 32.2676 11.5356 32.0619ZM5.06775 32.6269C4.97417 32.6678 4.88183 32.7099 4.79086 32.753C4.88489 32.7134 4.977 32.6713 5.06775 32.6269Z" fill="#F03E22"/>
<path d="M31.6739 32.1578H30.4904C30.0023 32.4766 29.4656 32.7528 28.8804 32.9856C27.9978 33.3367 27.0203 33.5525 25.9482 33.6326V40.1842L19.4142 32.1612C19.4124 32.1601 19.4109 32.1589 19.409 32.1578H17.5654V33.3507H15.3842V33.9242C16.2019 34.6211 16.8489 35.4389 17.326 36.3772L15.3842 36.9649V44.0384L17.326 44.6262C16.8489 45.5642 16.2019 46.3822 15.3842 47.0793V48.8452H21.2201V41.1041L27.7253 48.8452H31.7846H30.2256L31.7846 46.815V33.3507H31.6739V32.1578Z" fill="#00ADEF"/>
<path d="M17.5654 32.1584H15.3842V33.3513H17.5654V32.1584Z" fill="#254E46"/>
<path d="M31.7848 32.1584H31.6741V33.3513H31.7848V32.1584Z" fill="#00ADEF"/>
<path d="M15.3837 33.9236V36.9644L17.3256 36.3767C16.8485 35.4383 16.2013 34.6206 15.3837 33.9236ZM15.3837 44.0379V47.0789C16.2013 46.3817 16.8485 45.5637 17.3256 44.6257L15.3837 44.0379Z" fill="#008F4D"/>
<path d="M40.3907 32.0627H38.1001C37.9553 32.0627 37.812 32.0661 37.6707 32.0728V33.3507H33.8826C33.7779 33.4305 33.6763 33.5141 33.5781 33.6012C33.0172 34.0984 32.5789 34.7068 32.2616 35.4255C31.9442 36.1446 31.7856 36.9596 31.7856 37.8684C31.7856 39.2008 32.0497 40.2587 32.5789 41.0406C33.1075 41.8238 33.8903 42.3839 34.9264 42.7221L31.7839 46.8149V48.8452H36.5398L40.1945 43.674H41.3365V48.8452H47.2913V33.3507H41.2105L40.3907 32.0627ZM39.1156 39.4549C38.7555 39.4549 38.4648 39.3279 38.243 39.0738C38.021 38.8204 37.9095 38.4711 37.9095 38.0268C37.9095 37.5829 38.021 37.2338 38.243 36.98C38.4648 36.7262 38.7348 36.5996 39.052 36.5996H41.3365V39.4549H39.1156Z" fill="#F36E29"/>
<path d="M47.2916 32.0636H40.3911L41.2109 33.3516H47.2916V32.0636ZM37.6711 32.0737C36.9244 32.109 36.227 32.2377 35.5779 32.4601C34.9406 32.6785 34.3757 32.9756 33.8829 33.3516H37.6711V32.0737Z" fill="#254E46"/>
<path d="M31.7843 46.8149L30.2253 48.8452H31.7843V46.8149Z" fill="#254E46"/>
<path d="M24.9764 16.3455C24.336 16.3455 23.7274 16.3901 23.1504 16.479L22.0066 17.8401H19.5464C19.0361 18.1702 18.5775 18.5445 18.1702 18.9628C17.9531 19.1857 17.7513 19.4186 17.5645 19.6612V26.8466H27.7052C27.6417 27.7348 27.314 28.3749 26.7216 28.766C26.1297 29.1575 25.4839 29.353 24.7859 29.353C24.1306 29.353 23.5118 29.2052 22.9298 28.9086C22.3481 28.6127 21.9618 28.2004 21.7714 27.6716L18.2271 31.2153C18.584 31.5544 18.9763 31.8689 19.4082 32.1576H19.4106L19.4133 32.161C19.5352 32.2424 19.66 32.3213 19.7882 32.3985C21.1956 33.2448 22.9247 33.6677 24.9764 33.6677C25.3081 33.6677 25.6318 33.6561 25.9473 33.6323V32.1576H30.4895C30.9221 31.8747 31.3167 31.5581 31.673 31.2076V18.8667C31.2925 18.4864 30.8702 18.1442 30.4057 17.8401H28.5115V16.8983C27.4766 16.5297 26.2983 16.3455 24.9764 16.3455ZM22.3108 23.2298C22.417 22.4262 22.713 21.7918 23.1995 21.3263C23.6863 20.8613 24.31 20.6285 25.0715 20.6285C25.8331 20.6285 26.4574 20.8613 26.9439 21.3263C27.4304 21.7918 27.7266 22.4262 27.8324 23.2298H22.3108Z" fill="#FFCA0A"/>
<path d="M23.1504 16.4797C22.3929 16.5965 21.6901 16.7899 21.0417 17.06C20.5021 17.2848 20.0037 17.5451 19.5465 17.8408H22.0067L23.1504 16.4797ZM28.5115 16.8989V17.8408H30.4057C29.9526 17.5442 29.4599 17.2839 28.9272 17.06C28.7913 17.0029 28.6527 16.9491 28.5115 16.8989Z" fill="#F03E22"/>
<path d="M17.565 19.6611C17.0867 20.2828 16.7069 20.9701 16.4249 21.7229C16.0337 22.7698 15.8382 23.8642 15.8382 25.0064C15.8382 25.3236 15.8536 25.646 15.8857 25.9739C15.9173 26.3022 15.9546 26.5926 15.9968 26.8464H17.565V19.6611Z" fill="#F03E22"/>
<path d="M31.6733 18.8664V31.2073C31.6993 31.1812 31.7256 31.1553 31.7513 31.129C32.524 30.3471 33.1108 29.4477 33.5123 28.4325C33.9149 27.4172 34.1156 26.3493 34.1156 25.2283C34.1156 24.0226 33.9203 22.8806 33.5281 21.802C33.1374 20.7231 32.5553 19.7822 31.7829 18.9783C31.7467 18.9406 31.7102 18.9033 31.6733 18.8664Z" fill="#008F4D"/>
<path d="M30.4893 32.1558H25.9471V33.6306C27.0192 33.5505 27.9966 33.3347 28.8793 32.9836C29.4645 32.7508 30.0012 32.4747 30.4893 32.1558ZM19.4103 32.1558H19.4078C19.4098 32.1569 19.4113 32.1582 19.413 32.1592L19.4103 32.1558Z" fill="#008F4D"/>
</svg>
